<svg xmlns="http://www.w3.org/2000/svg" version="1.1" width="512" height="512" x="0" y="0" viewBox="0 0 512 512" style="enable-background:new 0 0 512 512" xml:space="preserve">
	<g>
		<path d="M265.29,2.628c-5.742-3.503-12.839-3.503-18.581,0C202.738,29.452,17.655,150.624,17.655,289.736  c0,72.301,58.519,130.912,130.706,130.912c23.627,0,45.771-6.295,64.883-17.29c5.48-3.153,11.886,2.421,9.737,8.41  c-10.196,28.403-24.632,54.75-42.561,78.244c-6.847,8.973-0.271,21.987,10.943,21.987h130.658c11.221,0,17.781-13.017,10.931-21.996  c-17.722-23.229-32.032-49.245-42.206-77.279c-2.161-5.955,4.156-11.538,9.653-8.474c18.732,10.434,40.279,16.398,63.241,16.398  c72.186,0,130.706-58.611,130.706-130.912C494.345,150.624,309.261,29.452,265.29,2.628z" fill="#515262"></path>
		<g>
			<path d="M202.022,409.036c-146.849-81.312-8.918-325.174,55.264-408.86   c-3.635-0.268-7.318,0.462-10.575,2.451C202.738,29.451,17.655,150.624,17.655,289.736c0,72.301,58.519,130.912,130.706,130.912   C167.507,420.648,185.648,416.456,202.022,409.036z" fill="#464655"></path>
			<path d="M231.363,492.88c8.452-70.259,8.085-90.25-13.538-90.25c3.791,0.772,6.705,4.822,5.155,9.139   c-10.196,28.403-24.633,54.75-42.561,78.246c-6.847,8.972-0.271,21.986,10.943,21.986h49.412   C230.911,512,230.519,499.9,231.363,492.88z" fill="#464655"></path>
		</g>
	</g>
</svg>
