<svg xmlns="http://www.w3.org/2000/svg" version="1.1" width="512" height="512" x="0" y="0" viewBox="0 0 512.001 512.001" style="enable-background:new 0 0 512 512" xml:space="preserve">
	<g>
		<path d="M410.963,206.632c-44.388-2.547-83.238,21.934-101.872,58.467  c-4.113,8.065-10.972,14.403-19.568,17.248c-0.107,0.035-0.213,0.071-0.32,0.106c-7.309,2.409-14.612-3.822-13.466-11.432  c2.517-16.72,6.471-32.969,11.714-48.629c2.847-8.505,9.072-15.331,17.069-19.39c36.635-18.596,61.202-57.502,58.652-101.965  C360.056,46.685,314.839,2.283,260.441,0.09c-61.312-2.473-111.796,46.501-111.796,107.264c0,41.859,24.002,78.026,58.963,95.713  c7.926,4.011,14.078,10.788,16.902,19.21c5.261,15.697,9.23,31.984,11.753,48.744c1.145,7.61-6.157,13.841-13.466,11.432  c-0.11-0.036-0.221-0.073-0.33-0.109c-8.589-2.843-15.442-9.174-19.552-17.234c-18.631-36.539-57.485-61.024-101.876-58.477  C46.685,209.751,2.283,254.967,0.091,309.366c-2.471,61.312,46.502,111.795,107.265,111.795c41.721,0,77.789-23.845,95.538-58.62  c4.13-8.091,11.015-14.444,19.638-17.296c0.1-0.033,0.201-0.066,0.301-0.099c7.313-2.409,14.596,3.826,13.465,11.442  c-7.579,51-28.485,97.642-59.059,136.298c-6.116,7.733-0.452,19.113,9.408,19.113h138.708c9.86,0,15.525-11.379,9.408-19.113  c-30.574-38.656-51.48-85.298-59.059-136.298c-1.132-7.616,6.152-13.852,13.465-11.442c0.1,0.033,0.201,0.066,0.301,0.099  c8.624,2.851,15.51,9.206,19.638,17.296c17.749,34.774,53.816,58.62,95.538,58.62c60.763,0,109.737-50.483,107.265-111.795  C509.718,254.969,465.315,209.751,410.963,206.632z" fill="#515262"></path>
		<g>
			<path d="M70.78,309.366c1.787-44.321,31.599-82.533,71.976-96.861c-12.952-4.541-27.019-6.715-41.719-5.873   C46.684,209.751,2.282,254.967,0.09,309.366c-2.471,61.312,46.502,111.795,107.265,111.795c12.421,0,24.323-2.156,35.407-6.042   C99.512,400.052,68.812,358.189,70.78,309.366z" fill="#464655"></path>
			<path d="M232.285,177.684c-5.12-17.164-12.95-51.119-12.95-70.329c0-53.21,30.071-86.59,71.927-101.241   c-9.756-3.466-20.098-5.591-30.82-6.024c-61.314-2.473-111.797,46.501-111.797,107.263c0,40.063,22.015,74.867,54.554,93.29l0,0   c1.458,0.826,2.909,1.663,4.409,2.422c7.928,4.011,14.079,10.788,16.902,19.21c5.263,15.696,9.23,31.985,11.753,48.744   c0.986,6.547-4.29,12.039-10.435,11.919l0.023,0.083c2.501,0.869,18.016,2.573,21.325-7.721   C250.387,265.313,245.337,221.437,232.285,177.684z" fill="#464655"></path>
			<path d="M410.963,206.632c-44.388-2.547-83.238,21.934-101.872,58.467   c-4.113,8.066-10.972,14.403-19.568,17.248c-0.107,0.035-2.439,0.624-3.466,0.634l0,0c0,0,39.985,5.557,71.973-36.91   c18.865-25.044,39.158-35.297,64.92-37.975C419.012,207.407,415.027,206.866,410.963,206.632z" fill="#464655"></path>
			<path d="M410.963,420.97c-44.388,2.547-83.238-21.934-101.872-58.467   c-4.113-8.066-10.972-14.403-19.568-17.248c-0.107-0.035-2.439-0.624-3.466-0.634l0,0c0,0,39.985-5.557,71.973,36.91   c18.865,25.044,39.158,35.297,64.92,37.975C419.012,420.195,415.027,420.736,410.963,420.97z" fill="#464655"></path>
			<path d="M229.495,492.887c13.637-34.297,27.425-130.261,4.062-144.882c0,0,3.237,5.231,2.739,8.585   c-7.579,51-28.485,97.642-59.059,136.298c-6.116,7.733-0.452,19.113,9.408,19.113h52.256   C229.042,512,225.852,502.049,229.495,492.887z" fill="#464655"></path>
		</g>
	</g>
</svg>
